<?xml version="1.0" encoding="UTF-8" standalone="no"?>
<!-- Created with Inkscape (http://www.inkscape.org/) -->

<svg
   version="1.1"
   id="svg1"
   width="512"
   height="512"
   viewBox="0 0 512.00001 512"
   xml:space="preserve"
   xmlns:xlink="http://www.w3.org/1999/xlink"
   xmlns="http://www.w3.org/2000/svg"
   xmlns:svg="http://www.w3.org/2000/svg"><defs
     id="defs1"><linearGradient
       id="linearGradient9"><stop
         style="stop-color:#a7d9c0;stop-opacity:1;"
         offset="0"
         id="stop8" /><stop
         style="stop-color:#e7ebe0;stop-opacity:1;"
         offset="1"
         id="stop9" /></linearGradient><linearGradient
       id="linearGradient6"><stop
         style="stop-color:#a7d9c0;stop-opacity:1;"
         offset="0"
         id="stop6" /><stop
         style="stop-color:#e7ebe0;stop-opacity:1;"
         offset="1"
         id="stop7" /></linearGradient><linearGradient
       id="linearGradient223"><stop
         style="stop-color:#1a0f24;stop-opacity:1;"
         offset="0.53402555"
         id="stop222" /><stop
         style="stop-color:#331f47;stop-opacity:1;"
         offset="1"
         id="stop223" /></linearGradient><linearGradient
       xlink:href="#linearGradient6"
       id="linearGradient8"
       gradientUnits="userSpaceOnUse"
       x1="121.70208"
       y1="357.39166"
       x2="128.29878"
       y2="244.50719"
       gradientTransform="matrix(1.0294512,0.05448941,-0.05656717,0.99163886,12.317057,-2.5164741)" /><linearGradient
       xlink:href="#linearGradient9"
       id="linearGradient10"
       gradientUnits="userSpaceOnUse"
       gradientTransform="matrix(1.0150741,0.05486608,-0.05577718,0.99849372,11.921401,-10.525471)"
       x1="263.73959"
       y1="358.97604"
       x2="270.53467"
       y2="246.17273" /><radialGradient
       xlink:href="#linearGradient223"
       id="radialGradient1"
       cx="265.52917"
       cy="331.35306"
       fx="265.52917"
       fy="331.35306"
       r="226.61182"
       gradientTransform="matrix(1,0,0,1.0003265,0,-0.0930409)"
       gradientUnits="userSpaceOnUse" /><linearGradient
       xlink:href="#linearGradient9"
       id="linearGradient1"
       gradientUnits="userSpaceOnUse"
       gradientTransform="matrix(1.0967365,0.05419207,-0.06026444,0.9862276,-6.8747627,-6.6010579)"
       x1="263.73959"
       y1="358.97604"
       x2="270.53467"
       y2="246.17273" /><linearGradient
       xlink:href="#linearGradient6"
       id="linearGradient2"
       gradientUnits="userSpaceOnUse"
       gradientTransform="matrix(1.1122702,0.05382003,-0.06111798,0.97945695,11.094044,1.2641269)"
       x1="121.70208"
       y1="357.39166"
       x2="128.29878"
       y2="244.50719" /><filter
       style="color-interpolation-filters:sRGB"
       id="filter2"
       x="-0.22879543"
       y="-0.16356912"
       width="1.4575909"
       height="1.3271382"><feGaussianBlur
         stdDeviation="7.859389"
         id="feGaussianBlur2" /></filter><filter
       style="color-interpolation-filters:sRGB"
       id="filter3"
       x="-0.21601377"
       y="-0.17150527"
       width="1.4320275"
       height="1.3430105"><feGaussianBlur
         stdDeviation="8.7802336"
         id="feGaussianBlur3" /></filter></defs><g
     id="layer5"
     transform="matrix(-1.1293165,0,0,1.1293165,557.79962,-65.785293)"
     style="display:inline"><path
       id="path23"
       style="display:inline;opacity:1;mix-blend-mode:normal;fill:url(#radialGradient1);stroke:#804db2;stroke-width:21.2472;stroke-linecap:round;stroke-linejoin:round;stroke-dasharray:none;stroke-opacity:1"
       d="m 410.92383,72.847421 c 23.91253,4.171734 37.70098,78.195149 53.40185,136.404889 15.70089,58.20973 23.32979,83.97166 16.55718,144.36113 -2.7684,24.68516 -20.18806,59.24714 -33.40732,78.03129 -11.55434,16.41836 -44.11537,49.0194 -83.75621,59.29613 -39.64088,10.27676 -81.12069,10.77183 -122.0557,9.61623 -41.99422,-1.18546 -85.80764,-4.60103 -121.76369,-26.3285 C 97.991421,460.98973 80.120386,441.34311 68.371709,418.60069 56.623066,395.85826 50.953178,370.10534 51.345893,344.51051 52.619929,261.4767 90.455816,210.2114 93.971064,196.40445 97.486319,182.59753 108.41733,70.701563 130.72205,68.936251 c 22.30472,-1.765312 92.81384,77.748189 92.81384,77.748189 10.33263,-0.69 51.28717,0.44656 61.61229,1.07103 2.33192,0.141 41.72168,7.93355 44.04975,8.14021 0,0 61.7031,-86.541401 81.7259,-83.048259 z" /><path
       style="opacity:1;mix-blend-mode:normal;fill:url(#linearGradient10);stroke:none;stroke-width:4.03722;filter:url(#filter3)"
       d="m 274.60838,245.13974 a 48.553022,61.610165 7.0541697 0 1 41.05462,66.67376 48.553022,61.610165 7.0541697 0 1 -55.43362,55.7043 48.553022,61.610165 7.0541697 0 1 -41.05268,-66.67365 48.553022,61.610165 7.0541697 0 1 49.07428,-55.89613 48.553022,61.610165 7.0541697 0 1 6.3574,0.19172 z"
       id="path7"
       transform="matrix(1.0804497,0,0,0.98771538,-19.755142,3.7947361)" /><path
       style="display:inline;mix-blend-mode:normal;fill:url(#linearGradient1);stroke:none;stroke-width:4.17062"
       d="m 276.9453,245.92341 a 52.34614,60.984624 11.235028 0 1 44.35745,65.8547 52.34614,60.984624 11.235028 0 1 -59.89324,55.01999 52.34614,60.984624 11.235028 0 1 -44.35535,-65.85459 52.34614,60.984624 11.235028 0 1 53.02229,-55.20947 52.34614,60.984624 11.235028 0 1 6.86885,0.18937 z"
       id="path7-5" /><path
       style="display:inline;opacity:1;mix-blend-mode:normal;fill:url(#linearGradient8);stroke:none;stroke-width:4.05175;filter:url(#filter2)"
       d="m 123.40822,242.73617 a 41.215022,57.66339 1.0125778 0 1 41.02405,57.23451 41.215022,57.66339 1.0125778 0 1 -41.41806,58.08083 41.215022,57.66339 1.0125778 0 1 -41.023783,-57.23812 41.215022,57.66339 1.0125778 0 1 41.417793,-58.07722 z"
       id="path31"
       transform="matrix(1.0804497,0,0,0.98771538,-2.2138932,3.7498683)" /><path
       style="display:inline;mix-blend-mode:normal;fill:url(#linearGradient2);stroke:none;stroke-width:4.18563"
       d="m 131.12246,243.50394 a 44.529038,56.957217 1.3936549 0 1 44.32442,56.5314 44.529038,56.957217 1.3936549 0 1 -44.75013,57.36733 44.529038,56.957217 1.3936549 0 1 -44.324135,-56.53497 44.529038,56.957217 1.3936549 0 1 44.749845,-57.36376 z"
       id="path31-5" /></g></svg>
