<?xml version="1.0" encoding="UTF-8" standalone="no"?>
<!-- Created with Inkscape (http://www.inkscape.org/) -->

<svg
   version="1.1"
   id="svg1"
   width="512.00006"
   height="741.75415"
   viewBox="0 0 512.00007 741.75415"
   xml:space="preserve"
   xmlns:xlink="http://www.w3.org/1999/xlink"
   xmlns="http://www.w3.org/2000/svg"
   xmlns:svg="http://www.w3.org/2000/svg"><defs
     id="defs1"><linearGradient
       id="linearGradient5"><stop
         style="stop-color:#a86bc7;stop-opacity:1;"
         offset="0"
         id="stop10" /><stop
         style="stop-color:#804db2;stop-opacity:1;"
         offset="1"
         id="stop5" /></linearGradient><linearGradient
       id="linearGradient4"><stop
         style="stop-color:#a7d9c0;stop-opacity:1;"
         offset="0"
         id="stop3" /><stop
         style="stop-color:#e7ebe0;stop-opacity:1;"
         offset="1"
         id="stop4" /></linearGradient><linearGradient
       id="linearGradient3"><stop
         style="stop-color:#a7d9c0;stop-opacity:1;"
         offset="0"
         id="stop1" /><stop
         style="stop-color:#e7ebe0;stop-opacity:1;"
         offset="1"
         id="stop2" /></linearGradient><linearGradient
       id="linearGradient9"><stop
         style="stop-color:#a7d9c0;stop-opacity:1;"
         offset="0"
         id="stop8" /><stop
         style="stop-color:#e7ebe0;stop-opacity:1;"
         offset="1"
         id="stop9" /></linearGradient><linearGradient
       id="linearGradient6"><stop
         style="stop-color:#a7d9c0;stop-opacity:1;"
         offset="0"
         id="stop6" /><stop
         style="stop-color:#e7ebe0;stop-opacity:1;"
         offset="1"
         id="stop7" /></linearGradient><linearGradient
       id="linearGradient223"><stop
         style="stop-color:#1a0f24;stop-opacity:1;"
         offset="0.06496428"
         id="stop222" /><stop
         style="stop-color:#331f47;stop-opacity:1;"
         offset="1"
         id="stop223" /></linearGradient><linearGradient
       xlink:href="#linearGradient6"
       id="linearGradient8"
       gradientUnits="userSpaceOnUse"
       x1="121.70208"
       y1="357.39166"
       x2="128.29878"
       y2="244.50719"
       gradientTransform="matrix(1.0294512,0.05448941,-0.05656717,0.99163886,12.317057,-2.5164741)" /><linearGradient
       xlink:href="#linearGradient9"
       id="linearGradient10"
       gradientUnits="userSpaceOnUse"
       gradientTransform="matrix(1.0150741,0.05486608,-0.05577718,0.99849372,11.921401,-10.525471)"
       x1="263.73959"
       y1="358.97604"
       x2="270.53467"
       y2="246.17273" /><radialGradient
       xlink:href="#linearGradient223"
       id="radialGradient1"
       cx="212.95084"
       cy="318.8385"
       fx="212.95084"
       fy="318.8385"
       r="226.61182"
       gradientTransform="matrix(1.0807273,0.30346624,-0.26750884,0.95267302,68.009405,-49.43759)"
       gradientUnits="userSpaceOnUse" /><linearGradient
       xlink:href="#linearGradient3"
       id="linearGradient1"
       gradientUnits="userSpaceOnUse"
       gradientTransform="matrix(1.0970944,0.05420976,-0.0602841,0.98654946,5.0397441,-6.6222213)"
       x1="263.73959"
       y1="358.97604"
       x2="270.53467"
       y2="246.17273" /><linearGradient
       xlink:href="#linearGradient4"
       id="linearGradient2"
       gradientUnits="userSpaceOnUse"
       gradientTransform="matrix(1.1126332,0.05383759,-0.06113792,0.9797766,23.014414,1.2455303)"
       x1="121.70208"
       y1="357.39166"
       x2="128.29878"
       y2="244.50719" /><filter
       style="color-interpolation-filters:sRGB"
       id="filter2"
       x="-0.22879543"
       y="-0.16356912"
       width="1.4575909"
       height="1.3271382"><feGaussianBlur
         stdDeviation="7.859389"
         id="feGaussianBlur2" /></filter><filter
       style="color-interpolation-filters:sRGB"
       id="filter3"
       x="-0.21601377"
       y="-0.17150527"
       width="1.4320275"
       height="1.3430105"><feGaussianBlur
         stdDeviation="8.7802336"
         id="feGaussianBlur3" /></filter><linearGradient
       xlink:href="#linearGradient5"
       id="linearGradient11"
       x1="46.816505"
       y1="65.864151"
       x2="486.41309"
       y2="502.90775"
       gradientUnits="userSpaceOnUse" /></defs><g
     id="layer5"
     transform="matrix(-1.1293165,0,0,1.1293165,557.79962,-65.785234)"
     style="display:inline"><path
       style="display:inline;fill:none;fill-opacity:0.996078;stroke:#331f47;stroke-width:63.3553;stroke-linecap:round;stroke-linejoin:round;stroke-dasharray:none;stroke-opacity:1"
       d="m 382.27929,503.30121 c -71.12539,33.04011 -157.58906,23.40398 -234.23944,5.77868"
       id="path3" /><path
       style="display:inline;fill:#f6ab20;fill-opacity:1;stroke:none;stroke-width:9.02314;stroke-linecap:butt;stroke-linejoin:round;stroke-dasharray:none;stroke-opacity:1"
       id="rect11-8"
       width="70.862328"
       height="35.431164"
       x="-242.10185"
       y="553.46869"
       transform="matrix(-0.86566727,0,0,1,31.64515,-2.1915056)"
       ry="0"
       rx="0"
       d="m -242.10185,553.46869 h 70.86233 v 30.2266 a 5.2045636,5.2045636 135 0 1 -5.20457,5.20456 h -58.67089 a 6.9868696,6.9868696 45 0 1 -6.98687,-6.98687 z" /><ellipse
       style="display:inline;fill:#f6ab20;fill-opacity:1;stroke:none;stroke-width:27.0805;stroke-linecap:round;stroke-linejoin:round;stroke-dasharray:none;stroke-opacity:1"
       id="path6-8"
       cx="-210.55316"
       cy="551.27722"
       transform="scale(-1,1)"
       rx="30.671642"
       ry="35.431213" /><path
       style="display:inline;fill:#f7ac20;fill-opacity:0.996078;stroke:none;stroke-width:28.0399;stroke-linecap:round;stroke-linejoin:round;stroke-dasharray:none;stroke-opacity:1"
       d="m 195.15353,518.90672 10.1726,-2.52474 30.93838,70.2093 -8.82695,2.24389 z"
       id="path10" /><path
       style="display:inline;fill:#ffc557;fill-opacity:1;stroke:none;stroke-width:9.02314;stroke-linecap:butt;stroke-linejoin:round;stroke-dasharray:none;stroke-opacity:1"
       id="rect11"
       width="70.862328"
       height="35.431164"
       x="-242.10185"
       y="553.46869"
       transform="matrix(-0.86566727,0,0,1,23.003038,0)"
       ry="0"
       rx="0"
       d="m -242.10185,553.46869 h 70.86233 v 30.2266 a 5.2045636,5.2045636 135 0 1 -5.20457,5.20456 h -58.67089 a 6.9868696,6.9868696 45 0 1 -6.98687,-6.98687 z" /><ellipse
       style="display:inline;fill:#ffc558;fill-opacity:0.996078;stroke:none;stroke-width:27.0805;stroke-linecap:round;stroke-linejoin:round;stroke-dasharray:none;stroke-opacity:1"
       id="path6"
       cx="-201.91092"
       cy="553.46906"
       transform="scale(-1,1)"
       rx="30.671642"
       ry="35.431213" /><circle
       style="display:inline;fill:#331f47;fill-opacity:1;stroke:none;stroke-width:61.4378;stroke-linecap:round;stroke-linejoin:round;stroke-dasharray:none;stroke-opacity:1"
       id="path8"
       cx="-202.01105"
       cy="545.88477"
       transform="scale(-1,1)"
       r="9.8675337" /><path
       style="display:inline;fill:#331f47;fill-opacity:1;stroke:none;stroke-width:30.1067;stroke-linecap:round;stroke-linejoin:round;stroke-dasharray:none;stroke-opacity:1"
       d="m 179.94405,542.27117 a 4.0867429,4.0867429 133.03675 0 0 -3.70994,3.97331 l -2.08632,17.97075 a 3.5624856,3.5624856 48.311058 0 0 3.53872,3.97331 h 4.44581 a 3.6765022,3.6765022 132.58691 0 0 3.66347,-3.98582 l -1.51521,-17.94573 a 4.3519628,4.3519628 42.586909 0 0 -4.33653,-3.98582 z"
       id="path9"
       transform="matrix(1.0003264,0,0,1.1794937,21.555894,-90.537779)" /><path
       id="path23"
       style="display:inline;opacity:1;mix-blend-mode:normal;fill:url(#radialGradient1);stroke:url(#linearGradient11);stroke-width:21.2542;stroke-linecap:round;stroke-linejoin:round;stroke-dasharray:none;stroke-opacity:1"
       d="m 410.89667,72.852187 c 23.92034,4.173095 37.71329,78.220673 53.41929,136.449413 15.70601,58.22872 23.3374,83.99906 16.56258,144.40824 -2.76931,24.69321 -20.19465,59.26648 -33.41822,78.05676 -11.55811,16.42372 -44.12976,49.03539 -83.78355,59.31548 -39.65381,10.28012 -81.14717,10.77534 -122.09554,9.61936 C 199.57331,499.5156 155.74559,496.09891 119.77781,474.36435 97.862133,461.12118 79.985268,441.46814 68.232762,418.7183 56.480279,395.96845 50.808544,370.20712 51.201393,344.60394 52.475836,261.54302 90.324072,210.261 93.840473,196.44954 97.356874,182.63812 108.29145,70.705629 130.60345,68.939741 c 22.31199,-1.765888 92.84413,77.773559 92.84413,77.773559 10.336,-0.69022 51.30391,0.44672 61.63239,1.07138 2.33268,0.14105 41.7353,7.93615 44.06413,8.14287 0,0 61.72324,-86.569645 81.75257,-83.075363 z" /><path
       style="display:inline;opacity:1;mix-blend-mode:normal;fill:url(#linearGradient10);stroke:none;stroke-width:4.03722;filter:url(#filter3)"
       d="m 274.60838,245.13974 a 48.553022,61.610165 7.0541697 0 1 41.05462,66.67376 48.553022,61.610165 7.0541697 0 1 -55.43362,55.7043 48.553022,61.610165 7.0541697 0 1 -41.05268,-66.67365 48.553022,61.610165 7.0541697 0 1 49.07428,-55.89613 48.553022,61.610165 7.0541697 0 1 6.3574,0.19172 z"
       id="path7"
       transform="matrix(1.0808023,0,0,0.98803773,-7.8448389,3.7769649)" /><path
       style="display:inline;mix-blend-mode:normal;fill:url(#linearGradient1);stroke:none;stroke-width:4.17198"
       d="m 288.95243,245.98466 a 52.363224,61.004528 11.235028 0 1 44.37193,65.87619 52.363224,61.004528 11.235028 0 1 -59.91279,55.03795 52.363224,61.004528 11.235028 0 1 -44.36983,-65.87609 52.363224,61.004528 11.235028 0 1 53.03959,-55.22748 52.363224,61.004528 11.235028 0 1 6.8711,0.18943 z"
       id="path7-5" /><path
       style="display:inline;opacity:1;mix-blend-mode:normal;fill:url(#linearGradient8);stroke:none;stroke-width:4.05175;filter:url(#filter2)"
       d="m 123.40822,242.73617 a 41.215022,57.66339 1.0125778 0 1 41.02405,57.23451 41.215022,57.66339 1.0125778 0 1 -41.41806,58.08083 41.215022,57.66339 1.0125778 0 1 -41.023783,-57.23812 41.215022,57.66339 1.0125778 0 1 41.417793,-58.07722 z"
       id="path31"
       transform="matrix(1.0808023,0,0,0.98803773,9.7021351,3.7320829)" /><path
       style="display:inline;mix-blend-mode:normal;fill:url(#linearGradient2);stroke:none;stroke-width:4.187"
       d="m 143.082,243.5644 a 44.543571,56.975806 1.3936549 0 1 44.33888,56.54985 44.543571,56.975806 1.3936549 0 1 -44.76473,57.38606 A 44.543571,56.975806 1.3936549 0 1 98.317548,300.94688 44.543571,56.975806 1.3936549 0 1 143.082,243.5644 Z"
       id="path31-5" /><path
       d="m -423.07753,717.71252 h -14.09522 l -17.25151,-56.51058 h 12.06309 l 9.55535,34.02741 3.06982,11.15512 3.19952,-11.80367 9.46888,-33.37886 h 11.32806 z m 62.90964,-22.31022 q 0,5.18843 -1.47005,9.51211 -1.47005,4.28045 -4.23721,7.35027 -2.76716,3.06982 -6.78819,4.75605 -4.02103,1.68624 -9.16622,1.68624 -4.88576,0 -8.73384,-1.42681 -3.84808,-1.42682 -6.52877,-4.23722 -2.68069,-2.85363 -4.1075,-7.09084 -1.42682,-4.28045 -1.42682,-9.94448 0,-5.23166 1.47005,-9.51211 1.51329,-4.28045 4.28045,-7.30703 2.8104,-3.02658 6.83143,-4.66959 4.02103,-1.68623 9.07974,-1.68623 4.929,0 8.77708,1.47005 3.84809,1.42682 6.52877,4.28045 2.68069,2.85363 4.06427,7.09085 1.42681,4.19397 1.42681,9.72829 z m -10.98216,0.25942 q 0,-6.83142 -2.59421,-10.24713 -2.55098,-3.45895 -7.56645,-3.45895 -2.76716,0 -4.71282,1.08092 -1.94566,1.08092 -3.19953,2.98334 -1.25387,1.85919 -1.85919,4.36692 -0.56208,2.50774 -0.56208,5.36138 0,6.87466 2.76716,10.37684 2.76716,3.45895 7.56646,3.45895 2.63744,0 4.5831,-1.03768 1.94566,-1.08092 3.15629,-2.94011 1.21064,-1.90242 1.81595,-4.4534 0.60532,-2.55097 0.60532,-5.49108 z m 45.96079,-33.8977 q 0,1.42682 -0.51884,2.68068 -0.51885,1.25387 -1.47006,2.20508 -0.90797,0.90798 -2.16184,1.47006 -1.25387,0.51884 -2.72392,0.51884 -1.47006,0 -2.76716,-0.51884 -1.25387,-0.56208 -2.20508,-1.47006 -0.90798,-0.95121 -1.42682,-2.20508 -0.51884,-1.25386 -0.51884,-2.68068 0,-1.42682 0.51884,-2.68069 0.51884,-1.25387 1.42682,-2.20508 0.95121,-0.95121 2.20508,-1.47005 1.2971,-0.56208 2.76716,-0.56208 1.47005,0 2.72392,0.56208 1.25387,0.51884 2.16184,1.47005 0.95121,0.95121 1.47006,2.20508 0.51884,1.25387 0.51884,2.68069 z m -11.67396,20.23485 h -12.40898 v -8.215 h 23.2182 v 35.71365 h 12.6684 v 8.215 h -37.39989 v -8.215 h 13.92227 z m 62.13139,35.71365 -0.25943,-6.48553 q -1.38358,1.68624 -2.85363,3.06982 -1.47005,1.38358 -3.15629,2.37803 -1.68624,0.95121 -3.6319,1.47005 -1.90242,0.56208 -4.23721,0.56208 -3.89132,0 -6.9179,-1.55652 -3.02658,-1.55653 -5.10195,-4.41017 -2.03213,-2.89687 -3.11305,-7.00437 -1.08093,-4.1075 -1.08093,-9.16621 0,-6.05316 1.68624,-10.46333 1.72948,-4.45339 4.75606,-7.35026 3.02658,-2.94011 7.17732,-4.32369 4.15074,-1.42682 9.0365,-1.42682 1.643,0 3.286,0.21619 1.68624,0.21618 2.98335,0.56208 v -17.16504 h 10.54979 v 61.09369 z m -19.28365,-21.61843 q 0,3.6319 0.47561,6.22611 0.51884,2.55098 1.47005,4.19398 0.99445,1.643 2.42127,2.42126 1.42681,0.73503 3.24276,0.73503 2.68069,0 5.10195,-2.16185 2.42127,-2.16184 5.14519,-5.92345 V 682.388 q -1.25387,-0.4756 -3.11306,-0.77826 -1.81594,-0.30266 -3.67513,-0.30266 -2.55097,0 -4.58311,1.03769 -2.03213,1.03768 -3.50218,2.9401 -1.42682,1.90243 -2.20508,4.66959 -0.77827,2.72392 -0.77827,6.13963 z m 71.08141,21.61843 -3.11306,-11.15511 h -19.71601 l -3.19953,11.15511 h -10.54979 l 16.73267,-56.51058 h 14.87348 l 16.73266,56.51058 z m -12.84135,-46.13373 -7.43674,26.28801 h 14.78701 z m 41.24796,2.20508 v 28.6228 q 0,3.58866 1.34035,5.44785 1.34034,1.81595 4.06426,1.81595 2.63745,0 5.05872,-2.16185 2.4645,-2.20508 5.18842,-5.92345 v -27.8013 h 10.5498 v 43.92865 h -9.12298 l -0.25942,-6.48553 q -1.38358,1.68624 -2.8104,3.06982 -1.42682,1.38358 -3.11306,2.37803 -1.643,0.95121 -3.63189,1.47005 -1.94566,0.56208 -4.32369,0.56208 -3.37247,0 -5.92345,-1.08092 -2.50774,-1.12416 -4.19398,-3.15629 -1.68623,-2.03213 -2.55097,-4.84253 -0.8215,-2.85363 -0.8215,-6.35582 v -29.48754 z m 74.4539,43.49629 q -2.85363,0.64855 -5.7505,1.03768 -2.89687,0.38913 -5.49109,0.38913 -4.32368,0 -7.47997,-0.90797 -3.11306,-0.90798 -5.18843,-2.76716 -2.03213,-1.85919 -3.02658,-4.71282 -0.95121,-2.89687 -0.95121,-6.87466 V 681.99887 H -159.765 v -8.215 h 11.80366 v -11.24159 l 10.80922,-2.81039 v 14.05198 h 17.07856 v 8.215 h -17.07856 v 20.66722 q 0,3.76161 1.72947,5.70727 1.72948,1.90242 5.79374,1.90242 2.59421,0 5.05872,-0.43237 2.4645,-0.43236 4.49663,-0.99444 z m 38.653739,0.43236 v -28.6228 q 0,-7.22056 -5.361371,-7.22056 -2.680686,0 -5.145188,2.16185 -2.421264,2.16184 -5.145187,5.88021 v 27.8013 h -10.549793 v -61.09369 h 10.549793 v 15.04643 l -0.518842,7.95558 q 1.340343,-1.59976 2.723922,-2.85363 1.38358,-1.2971 2.983344,-2.16184 1.599764,-0.86474 3.45895,-1.29711 1.859185,-0.4756 4.107502,-0.4756 3.372476,0 5.880214,1.12416 2.507738,1.08092 4.193976,3.11305 1.686238,1.9889 2.507738,4.84253 0.864737,2.8104 0.864737,6.31258 v 29.48754 z"
       id="text1"
       style="font-weight:bold;font-size:88.5491px;line-height:0;font-family:Consolas;-inkscape-font-specification:'Consolas Bold';fill:#ffffff;stroke-width:4.40505;stroke-linecap:square;stroke-linejoin:round"
       transform="scale(-1.0050874,0.99493836)"
       aria-label="VoidAuth" /></g></svg>
