<?xml version="1.0" encoding="UTF-8" standalone="no"?>
<!-- Created with Inkscape (http://www.inkscape.org/) -->

<svg
   version="1.1"
   id="svg1"
   width="512.00006"
   height="599.26953"
   viewBox="0 0 512.00007 599.26953"
   xml:space="preserve"
   xmlns:xlink="http://www.w3.org/1999/xlink"
   xmlns="http://www.w3.org/2000/svg"
   xmlns:svg="http://www.w3.org/2000/svg"><defs
     id="defs1"><linearGradient
       id="linearGradient5"><stop
         style="stop-color:#a86bc7;stop-opacity:1;"
         offset="0"
         id="stop10" /><stop
         style="stop-color:#804db2;stop-opacity:1;"
         offset="1"
         id="stop5" /></linearGradient><linearGradient
       id="linearGradient4"><stop
         style="stop-color:#a7d9c0;stop-opacity:1;"
         offset="0"
         id="stop3" /><stop
         style="stop-color:#e7ebe0;stop-opacity:1;"
         offset="1"
         id="stop4" /></linearGradient><linearGradient
       id="linearGradient3"><stop
         style="stop-color:#a7d9c0;stop-opacity:1;"
         offset="0"
         id="stop1" /><stop
         style="stop-color:#e7ebe0;stop-opacity:1;"
         offset="1"
         id="stop2" /></linearGradient><linearGradient
       id="linearGradient9"><stop
         style="stop-color:#a7d9c0;stop-opacity:1;"
         offset="0"
         id="stop8" /><stop
         style="stop-color:#e7ebe0;stop-opacity:1;"
         offset="1"
         id="stop9" /></linearGradient><linearGradient
       id="linearGradient6"><stop
         style="stop-color:#a7d9c0;stop-opacity:1;"
         offset="0"
         id="stop6" /><stop
         style="stop-color:#e7ebe0;stop-opacity:1;"
         offset="1"
         id="stop7" /></linearGradient><linearGradient
       id="linearGradient223"><stop
         style="stop-color:#1a0f24;stop-opacity:1;"
         offset="0.06496428"
         id="stop222" /><stop
         style="stop-color:#331f47;stop-opacity:1;"
         offset="1"
         id="stop223" /></linearGradient><linearGradient
       xlink:href="#linearGradient6"
       id="linearGradient8"
       gradientUnits="userSpaceOnUse"
       x1="121.70208"
       y1="357.39166"
       x2="128.29878"
       y2="244.50719"
       gradientTransform="matrix(1.0294512,0.05448941,-0.05656717,0.99163886,12.317057,-2.5164741)" /><linearGradient
       xlink:href="#linearGradient9"
       id="linearGradient10"
       gradientUnits="userSpaceOnUse"
       gradientTransform="matrix(1.0150741,0.05486608,-0.05577718,0.99849372,11.921401,-10.525471)"
       x1="263.73959"
       y1="358.97604"
       x2="270.53467"
       y2="246.17273" /><radialGradient
       xlink:href="#linearGradient223"
       id="radialGradient1"
       cx="212.95084"
       cy="318.8385"
       fx="212.95084"
       fy="318.8385"
       r="226.61182"
       gradientTransform="matrix(1.0807273,0.30346624,-0.26750884,0.95267302,68.009405,-49.43759)"
       gradientUnits="userSpaceOnUse" /><linearGradient
       xlink:href="#linearGradient3"
       id="linearGradient1"
       gradientUnits="userSpaceOnUse"
       gradientTransform="matrix(1.0970944,0.05420976,-0.0602841,0.98654946,5.0397441,-6.6222213)"
       x1="263.73959"
       y1="358.97604"
       x2="270.53467"
       y2="246.17273" /><linearGradient
       xlink:href="#linearGradient4"
       id="linearGradient2"
       gradientUnits="userSpaceOnUse"
       gradientTransform="matrix(1.1126332,0.05383759,-0.06113792,0.9797766,23.014414,1.2455303)"
       x1="121.70208"
       y1="357.39166"
       x2="128.29878"
       y2="244.50719" /><filter
       style="color-interpolation-filters:sRGB"
       id="filter2"
       x="-0.22879543"
       y="-0.16356912"
       width="1.4575909"
       height="1.3271382"><feGaussianBlur
         stdDeviation="7.859389"
         id="feGaussianBlur2" /></filter><filter
       style="color-interpolation-filters:sRGB"
       id="filter3"
       x="-0.21601377"
       y="-0.17150527"
       width="1.4320275"
       height="1.3430105"><feGaussianBlur
         stdDeviation="8.7802336"
         id="feGaussianBlur3" /></filter><linearGradient
       xlink:href="#linearGradient5"
       id="linearGradient11"
       x1="46.816505"
       y1="65.864151"
       x2="486.41309"
       y2="502.90775"
       gradientUnits="userSpaceOnUse" /></defs><g
     id="layer5"
     transform="matrix(-1.1293165,0,0,1.1293165,557.79962,-65.785234)"
     style="display:inline"><path
       style="display:inline;fill:none;fill-opacity:0.996078;stroke:#331f47;stroke-width:63.3553;stroke-linecap:round;stroke-linejoin:round;stroke-dasharray:none;stroke-opacity:1"
       d="m 382.27929,503.30121 c -71.12539,33.04011 -157.58906,23.40398 -234.23944,5.77868"
       id="path3" /><path
       style="display:inline;fill:#f6ab20;fill-opacity:1;stroke:none;stroke-width:9.02314;stroke-linecap:butt;stroke-linejoin:round;stroke-dasharray:none;stroke-opacity:1"
       id="rect11-8"
       width="70.862328"
       height="35.431164"
       x="-242.10185"
       y="553.46869"
       transform="matrix(-0.86566727,0,0,1,31.64515,-2.1915056)"
       ry="0"
       rx="0"
       d="m -242.10185,553.46869 h 70.86233 v 30.2266 a 5.2045636,5.2045636 135 0 1 -5.20457,5.20456 h -58.67089 a 6.9868696,6.9868696 45 0 1 -6.98687,-6.98687 z" /><ellipse
       style="display:inline;fill:#f6ab20;fill-opacity:1;stroke:none;stroke-width:27.0805;stroke-linecap:round;stroke-linejoin:round;stroke-dasharray:none;stroke-opacity:1"
       id="path6-8"
       cx="-210.55316"
       cy="551.27722"
       transform="scale(-1,1)"
       rx="30.671642"
       ry="35.431213" /><path
       style="display:inline;fill:#f7ac20;fill-opacity:0.996078;stroke:none;stroke-width:28.0399;stroke-linecap:round;stroke-linejoin:round;stroke-dasharray:none;stroke-opacity:1"
       d="m 195.15353,518.90672 10.1726,-2.52474 30.93838,70.2093 -8.82695,2.24389 z"
       id="path10" /><path
       style="display:inline;fill:#ffc557;fill-opacity:1;stroke:none;stroke-width:9.02314;stroke-linecap:butt;stroke-linejoin:round;stroke-dasharray:none;stroke-opacity:1"
       id="rect11"
       width="70.862328"
       height="35.431164"
       x="-242.10185"
       y="553.46869"
       transform="matrix(-0.86566727,0,0,1,23.003038,0)"
       ry="0"
       rx="0"
       d="m -242.10185,553.46869 h 70.86233 v 30.2266 a 5.2045636,5.2045636 135 0 1 -5.20457,5.20456 h -58.67089 a 6.9868696,6.9868696 45 0 1 -6.98687,-6.98687 z" /><ellipse
       style="display:inline;fill:#ffc558;fill-opacity:0.996078;stroke:none;stroke-width:27.0805;stroke-linecap:round;stroke-linejoin:round;stroke-dasharray:none;stroke-opacity:1"
       id="path6"
       cx="-201.91092"
       cy="553.46906"
       transform="scale(-1,1)"
       rx="30.671642"
       ry="35.431213" /><circle
       style="display:inline;fill:#331f47;fill-opacity:1;stroke:none;stroke-width:61.4378;stroke-linecap:round;stroke-linejoin:round;stroke-dasharray:none;stroke-opacity:1"
       id="path8"
       cx="-202.01105"
       cy="545.88477"
       transform="scale(-1,1)"
       r="9.8675337" /><path
       style="display:inline;fill:#331f47;fill-opacity:1;stroke:none;stroke-width:30.1067;stroke-linecap:round;stroke-linejoin:round;stroke-dasharray:none;stroke-opacity:1"
       d="m 179.94405,542.27117 a 4.0867429,4.0867429 133.03675 0 0 -3.70994,3.97331 l -2.08632,17.97075 a 3.5624856,3.5624856 48.311058 0 0 3.53872,3.97331 h 4.44581 a 3.6765022,3.6765022 132.58691 0 0 3.66347,-3.98582 l -1.51521,-17.94573 a 4.3519628,4.3519628 42.586909 0 0 -4.33653,-3.98582 z"
       id="path9"
       transform="matrix(1.0003264,0,0,1.1794937,21.555894,-90.537779)" /><path
       id="path23"
       style="display:inline;opacity:1;mix-blend-mode:normal;fill:url(#radialGradient1);stroke:url(#linearGradient11);stroke-width:21.2542;stroke-linecap:round;stroke-linejoin:round;stroke-dasharray:none;stroke-opacity:1"
       d="m 410.89667,72.852187 c 23.92034,4.173095 37.71329,78.220673 53.41929,136.449413 15.70601,58.22872 23.3374,83.99906 16.56258,144.40824 -2.76931,24.69321 -20.19465,59.26648 -33.41822,78.05676 -11.55811,16.42372 -44.12976,49.03539 -83.78355,59.31548 -39.65381,10.28012 -81.14717,10.77534 -122.09554,9.61936 C 199.57331,499.5156 155.74559,496.09891 119.77781,474.36435 97.862133,461.12118 79.985268,441.46814 68.232762,418.7183 56.480279,395.96845 50.808544,370.20712 51.201393,344.60394 52.475836,261.54302 90.324072,210.261 93.840473,196.44954 97.356874,182.63812 108.29145,70.705629 130.60345,68.939741 c 22.31199,-1.765888 92.84413,77.773559 92.84413,77.773559 10.336,-0.69022 51.30391,0.44672 61.63239,1.07138 2.33268,0.14105 41.7353,7.93615 44.06413,8.14287 0,0 61.72324,-86.569645 81.75257,-83.075363 z" /><path
       style="display:inline;opacity:1;mix-blend-mode:normal;fill:url(#linearGradient10);stroke:none;stroke-width:4.03722;filter:url(#filter3)"
       d="m 274.60838,245.13974 a 48.553022,61.610165 7.0541697 0 1 41.05462,66.67376 48.553022,61.610165 7.0541697 0 1 -55.43362,55.7043 48.553022,61.610165 7.0541697 0 1 -41.05268,-66.67365 48.553022,61.610165 7.0541697 0 1 49.07428,-55.89613 48.553022,61.610165 7.0541697 0 1 6.3574,0.19172 z"
       id="path7"
       transform="matrix(1.0808023,0,0,0.98803773,-7.8448389,3.7769649)" /><path
       style="display:inline;mix-blend-mode:normal;fill:url(#linearGradient1);stroke:none;stroke-width:4.17198"
       d="m 288.95243,245.98466 a 52.363224,61.004528 11.235028 0 1 44.37193,65.87619 52.363224,61.004528 11.235028 0 1 -59.91279,55.03795 52.363224,61.004528 11.235028 0 1 -44.36983,-65.87609 52.363224,61.004528 11.235028 0 1 53.03959,-55.22748 52.363224,61.004528 11.235028 0 1 6.8711,0.18943 z"
       id="path7-5" /><path
       style="display:inline;opacity:1;mix-blend-mode:normal;fill:url(#linearGradient8);stroke:none;stroke-width:4.05175;filter:url(#filter2)"
       d="m 123.40822,242.73617 a 41.215022,57.66339 1.0125778 0 1 41.02405,57.23451 41.215022,57.66339 1.0125778 0 1 -41.41806,58.08083 41.215022,57.66339 1.0125778 0 1 -41.023783,-57.23812 41.215022,57.66339 1.0125778 0 1 41.417793,-58.07722 z"
       id="path31"
       transform="matrix(1.0808023,0,0,0.98803773,9.7021351,3.7320829)" /><path
       style="display:inline;mix-blend-mode:normal;fill:url(#linearGradient2);stroke:none;stroke-width:4.187"
       d="m 143.082,243.5644 a 44.543571,56.975806 1.3936549 0 1 44.33888,56.54985 44.543571,56.975806 1.3936549 0 1 -44.76473,57.38606 A 44.543571,56.975806 1.3936549 0 1 98.317548,300.94688 44.543571,56.975806 1.3936549 0 1 143.082,243.5644 Z"
       id="path31-5" /></g></svg>
